<svg class="icon"  viewBox="0 0 1024 1024" version="1.1" xmlns="http://www.w3.org/2000/svg"><path fill="#e78930" d="M800.213333 434.346667a298.666667 298.666667 0 0 0-561.92-41.6A213.333333 213.333333 0 0 0 298.666667 810.666667h448a192 192 0 0 0 53.546666-376.32zM746.666667 725.333333H298.666667a128 128 0 0 1 0-256h4.266666A213.333333 213.333333 0 0 1 725.333333 512a7.253333 7.253333 0 0 1 0 2.133333 120.96 120.96 0 0 1 21.333334-2.133333 106.666667 106.666667 0 0 1 0 213.333333z m-234.666667-42.666666a149.333333 149.333333 0 1 1 149.333333-149.333334h-85.333333a64 64 0 1 0-64 64z" /></svg>