<?xml version="1.0" standalone="no"?><!DOCTYPE svg PUBLIC "-//W3C//DTD SVG 1.1//EN" "http://www.w3.org/Graphics/SVG/1.1/DTD/svg11.dtd"><svg class="icon" width="48px" height="48.00px" viewBox="0 0 1024 1024" version="1.1" xmlns="http://www.w3.org/2000/svg"><path fill="#8D929C" d="M896 512a213.333333 213.333333 0 0 0-174.293333-209.706667 213.333333 213.333333 0 0 0-419.413334 0 213.333333 213.333333 0 0 0 0 419.413334 213.333333 213.333333 0 0 0 419.413334 0A213.333333 213.333333 0 0 0 896 512zM512 213.333333a128 128 0 0 1 122.453333 91.093334 213.333333 213.333333 0 0 0-159.36 159.36A128 128 0 0 1 512 213.333333zM213.333333 512a128 128 0 0 1 91.093334-122.453333 213.333333 213.333333 0 0 0 159.36 159.36A128 128 0 0 1 213.333333 512z m298.666667 298.666667a128 128 0 0 1-122.453333-91.093334 213.333333 213.333333 0 0 0 159.36-159.36A128 128 0 0 1 512 810.666667z m207.573333-176.213334a213.333333 213.333333 0 0 0-159.36-159.36 128 128 0 1 1 159.36 159.36z" /></svg>