<svg class="icon" width="24px" height="24px" viewBox="0 0 1024 1024" version="1.1"
                        xmlns="http://www.w3.org/2000/svg">
                        <path fill="#8D929C"
                            d="M853.333333 682.666667v-42.666667a42.666667 42.666667 0 0 0-85.333333 0v170.666667a42.666667 42.666667 0 0 0 85.333333 0h-42.666666v-85.333334h128v85.333334a128 128 0 0 1-256 0v-170.666667a128 128 0 0 1 256 0v42.666667z m-512-85.333334v-85.333333H85.333333v85.333333h85.333334v256H85.333333v85.333334h256v-85.333334h-85.333333V597.333333z m298.666667-85.333333v426.666667h-85.333333V654.293333l-42.666667 56.746667-42.666667-56.746667V938.666667h-85.333333V512h85.333333l42.666667 56.96L554.666667 512z m85.333333-426.666667l213.333334 213.333334v170.666666h-85.333334v-135.253333L689.92 170.666667H170.666667v298.666666H85.333333V85.333333z" />
                    </svg>