<svg class="icon" width="36" height="36" viewBox="0 0 1024 1024" version="1.1"
                xmlns="http://www.w3.org/2000/svg">
                <path fill="#8D929C"
                    d="M896 512A384 384 0 0 0 533.333333 129.066667h-21.333333A384 384 0 0 0 129.066667 490.666667v21.333333A384 384 0 0 0 490.666667 896h21.333333a384 384 0 0 0 384-362.666667v-21.333333z m-85.333333 0v13.013333a128 128 0 0 1-249.813334 23.893334A213.333333 213.333333 0 0 0 721.066667 298.666667 298.666667 298.666667 0 0 1 810.666667 512zM512 213.333333h13.013333a128 128 0 0 1 23.893334 249.813334A213.333333 213.333333 0 0 0 298.666667 302.933333 298.666667 298.666667 0 0 1 512 213.333333zM213.333333 512v-13.013333a128 128 0 0 1 249.813334-23.893334A213.333333 213.333333 0 0 0 302.933333 725.333333 298.666667 298.666667 0 0 1 213.333333 512z m298.666667 298.666667h-13.013333a128 128 0 0 1-23.893334-249.813334A213.333333 213.333333 0 0 0 725.333333 721.066667 298.666667 298.666667 0 0 1 512 810.666667z" />
            </svg>